<svg width="322" height="56" viewBox="0 0 322 56" fill="none" xmlns="http://www.w3.org/2000/svg">
<path d="M89.32 40.52C89.3733 40.52 89.4 40.6 89.4 40.76C89.4 40.92 89.3733 41 89.32 41C88.4133 41 87.6933 40.9867 87.16 40.96L84.2 40.92L81.2 40.96C80.6933 40.9867 80 41 79.12 41C79.04 41 79 40.92 79 40.76C79 40.6 79.04 40.52 79.12 40.52C80.24 40.52 81 40.3867 81.4 40.12C81.8 39.8533 82 39.2933 82 38.44L81.96 37.76L81.12 21.4L72.88 40.72C72.8267 40.8267 72.72 40.88 72.56 40.88C72.4 40.88 72.2933 40.8267 72.24 40.72L62.12 21.48L61.8 35.92C61.7733 37.36 62.0533 38.4933 62.64 39.32C63.2533 40.12 64.1067 40.52 65.2 40.52C65.28 40.52 65.32 40.6 65.32 40.76C65.32 40.92 65.28 41 65.2 41C64.48 41 63.92 40.9867 63.52 40.96L61.32 40.92L58.8 40.96C58.3733 40.9867 57.8 41 57.08 41C57 41 56.96 40.92 56.96 40.76C56.96 40.6 57 40.52 57.08 40.52C58.1733 40.52 59.04 40.1067 59.68 39.28C60.32 38.4533 60.6533 37.3333 60.68 35.92L61.04 19.36L61 19.32C60.4667 18.3333 59.9067 17.6133 59.32 17.16C58.76 16.7067 58.1067 16.48 57.36 16.48C57.28 16.48 57.24 16.4 57.24 16.24C57.24 16.08 57.28 16 57.36 16L59.24 16.04C59.6133 16.0667 60.0933 16.08 60.68 16.08L62.8 16.04C63.04 16.0133 63.3467 16 63.72 16C64.0667 16 64.3333 16.12 64.52 16.36C64.7067 16.6 65.0533 17.1733 65.56 18.08L74.28 34.44L81.88 17C82.04 16.6267 82.2 16.3733 82.36 16.24C82.5467 16.08 82.7867 16 83.08 16C83.32 16 83.5867 16.0133 83.88 16.04C84.2 16.0667 84.56 16.08 84.96 16.08L87.32 16.04C87.6933 16.0133 88.2267 16 88.92 16C89 16 89.04 16.08 89.04 16.24C89.04 16.4 89 16.48 88.92 16.48C87.6667 16.48 86.76 16.7333 86.2 17.24C85.64 17.7467 85.3867 18.5333 85.44 19.6L86.4 37.76C86.4533 38.5867 86.5467 39.1867 86.68 39.56C86.84 39.9333 87.1067 40.1867 87.48 40.32C87.88 40.4533 88.4933 40.52 89.32 40.52ZM110.257 38.84C110.364 38.84 110.43 38.9067 110.457 39.04C110.51 39.1467 110.484 39.2267 110.377 39.28L106.257 41.24C106.15 41.2933 106.017 41.32 105.857 41.32C105.43 41.32 105.017 41.0933 104.617 40.64C104.244 40.1867 103.977 39.5733 103.817 38.8L102.097 40C101.484 40.4533 100.91 40.7867 100.377 41C99.8435 41.1867 99.2435 41.28 98.5769 41.28C97.4302 41.28 96.5635 41.0267 95.9769 40.52C95.3902 40.0133 95.0969 39.3067 95.0969 38.4C95.0969 37.68 95.2702 37.1067 95.6169 36.68C95.9635 36.2267 96.3902 35.88 96.8969 35.64C97.4302 35.3733 98.1635 35.08 99.0969 34.76L100.097 34.4L103.697 33.08V30.8C103.697 29.0933 103.55 27.8533 103.257 27.08C102.99 26.3067 102.524 25.92 101.857 25.92C100.444 25.92 99.6435 27.0133 99.4569 29.2C99.3769 30 99.1369 30.5733 98.7369 30.92C98.3635 31.2667 97.8302 31.44 97.1369 31.44C96.4702 31.44 95.9769 31.3067 95.6569 31.04C95.3635 30.7467 95.2169 30.3733 95.2169 29.92C95.2169 29.12 95.6835 28.36 96.6169 27.64C97.5502 26.8933 98.6702 26.2933 99.9769 25.84C101.31 25.3867 102.484 25.16 103.497 25.16C104.67 25.16 105.617 25.5333 106.337 26.28C107.084 27 107.457 28.1067 107.457 29.6V36.68C107.457 37.4533 107.59 38.0533 107.857 38.48C108.15 38.9067 108.55 39.12 109.057 39.12C109.43 39.12 109.817 39.0267 110.217 38.84H110.257ZM103.737 38.12C103.71 38.0133 103.697 37.84 103.697 37.6V33.76L101.977 34.56C101.897 34.5867 101.63 34.6933 101.177 34.88C100.724 35.04 100.324 35.32 99.9769 35.72C99.6569 36.12 99.4969 36.5867 99.4969 37.12C99.4969 37.76 99.6969 38.2667 100.097 38.64C100.524 38.9867 101.004 39.16 101.537 39.16C101.964 39.16 102.404 39.0133 102.857 38.72L103.737 38.12ZM118.933 21.2C118.159 21.2 117.559 20.9867 117.133 20.56C116.706 20.1333 116.493 19.5333 116.493 18.76C116.493 18.0667 116.706 17.52 117.133 17.12C117.586 16.6933 118.186 16.48 118.933 16.48C119.679 16.48 120.253 16.68 120.653 17.08C121.053 17.48 121.253 18.04 121.253 18.76C121.253 19.5333 121.053 20.1333 120.653 20.56C120.253 20.9867 119.679 21.2 118.933 21.2ZM115.093 41C115.013 41 114.973 40.92 114.973 40.76C114.973 40.6 115.013 40.52 115.093 40.52C115.919 40.52 116.479 40.3333 116.773 39.96C117.066 39.56 117.213 38.8267 117.213 37.76V30.6C117.213 29.6933 117.119 29.04 116.933 28.64C116.746 28.24 116.439 28.04 116.013 28.04C115.666 28.04 115.173 28.1867 114.533 28.48H114.493C114.386 28.48 114.306 28.4133 114.253 28.28C114.199 28.12 114.213 28.0267 114.293 28L120.333 25.2L120.453 25.16C120.586 25.16 120.719 25.2267 120.853 25.36C120.986 25.4933 121.053 25.6133 121.053 25.72V26.6C120.999 27.6667 120.973 28.9733 120.973 30.52V37.76C120.973 38.8267 121.119 39.56 121.413 39.96C121.733 40.3333 122.306 40.52 123.133 40.52C123.213 40.52 123.253 40.6 123.253 40.76C123.253 40.92 123.213 41 123.133 41C122.439 41 121.893 40.9867 121.493 40.96L119.093 40.92L116.733 40.96C116.333 40.9867 115.786 41 115.093 41ZM147.601 40.52C147.681 40.52 147.721 40.6 147.721 40.76C147.721 40.92 147.681 41 147.601 41C146.907 41 146.361 40.9867 145.961 40.96L143.561 40.92L141.241 40.96C140.814 40.9867 140.254 41 139.561 41C139.481 41 139.441 40.92 139.441 40.76C139.441 40.6 139.481 40.52 139.561 40.52C140.387 40.52 140.947 40.3333 141.241 39.96C141.534 39.56 141.681 38.8267 141.681 37.76V32C141.681 30.56 141.414 29.4933 140.881 28.8C140.374 28.1067 139.561 27.76 138.441 27.76C137.801 27.76 137.134 27.8933 136.441 28.16C135.774 28.4267 135.187 28.7867 134.681 29.24V37.76C134.681 38.8267 134.827 39.56 135.121 39.96C135.441 40.3333 136.014 40.52 136.841 40.52C136.921 40.52 136.961 40.6 136.961 40.76C136.961 40.92 136.921 41 136.841 41C136.147 41 135.601 40.9867 135.201 40.96L132.801 40.92L130.441 40.96C130.041 40.9867 129.494 41 128.801 41C128.721 41 128.681 40.92 128.681 40.76C128.681 40.6 128.721 40.52 128.801 40.52C129.627 40.52 130.187 40.3333 130.481 39.96C130.774 39.56 130.921 38.8267 130.921 37.76V30.24C130.921 29.4133 130.814 28.8133 130.601 28.44C130.414 28.04 130.107 27.84 129.681 27.84C129.227 27.84 128.587 28.0267 127.761 28.4H127.681C127.601 28.4 127.534 28.3333 127.481 28.2C127.454 28.0667 127.467 27.9867 127.521 27.96L133.081 25.24C133.241 25.1867 133.334 25.16 133.361 25.16C133.654 25.16 133.934 25.4533 134.201 26.04C134.467 26.6 134.627 27.3733 134.681 28.36C136.521 26.1733 138.547 25.08 140.761 25.08C142.201 25.08 143.334 25.5467 144.161 26.48C145.014 27.3867 145.441 28.5867 145.441 30.08V37.76C145.441 38.8267 145.587 39.56 145.881 39.96C146.201 40.3333 146.774 40.52 147.601 40.52ZM197.39 40.52C197.444 40.52 197.47 40.6 197.47 40.76C197.47 40.92 197.444 41 197.39 41C196.484 41 195.764 40.9867 195.23 40.96L192.27 40.92L189.27 40.96C188.764 40.9867 188.07 41 187.19 41C187.11 41 187.07 40.92 187.07 40.76C187.07 40.6 187.11 40.52 187.19 40.52C188.31 40.52 189.07 40.3867 189.47 40.12C189.87 39.8533 190.07 39.2933 190.07 38.44L190.03 37.76L189.19 21.4L180.95 40.72C180.897 40.8267 180.79 40.88 180.63 40.88C180.47 40.88 180.364 40.8267 180.31 40.72L170.19 21.48L169.87 35.92C169.844 37.36 170.124 38.4933 170.71 39.32C171.324 40.12 172.177 40.52 173.27 40.52C173.35 40.52 173.39 40.6 173.39 40.76C173.39 40.92 173.35 41 173.27 41C172.55 41 171.99 40.9867 171.59 40.96L169.39 40.92L166.87 40.96C166.444 40.9867 165.87 41 165.15 41C165.07 41 165.03 40.92 165.03 40.76C165.03 40.6 165.07 40.52 165.15 40.52C166.244 40.52 167.11 40.1067 167.75 39.28C168.39 38.4533 168.724 37.3333 168.75 35.92L169.11 19.36L169.07 19.32C168.537 18.3333 167.977 17.6133 167.39 17.16C166.83 16.7067 166.177 16.48 165.43 16.48C165.35 16.48 165.31 16.4 165.31 16.24C165.31 16.08 165.35 16 165.43 16L167.31 16.04C167.684 16.0667 168.164 16.08 168.75 16.08L170.87 16.04C171.11 16.0133 171.417 16 171.79 16C172.137 16 172.404 16.12 172.59 16.36C172.777 16.6 173.124 17.1733 173.63 18.08L182.35 34.44L189.95 17C190.11 16.6267 190.27 16.3733 190.43 16.24C190.617 16.08 190.857 16 191.15 16C191.39 16 191.657 16.0133 191.95 16.04C192.27 16.0667 192.63 16.08 193.03 16.08L195.39 16.04C195.764 16.0133 196.297 16 196.99 16C197.07 16 197.11 16.08 197.11 16.24C197.11 16.4 197.07 16.48 196.99 16.48C195.737 16.48 194.83 16.7333 194.27 17.24C193.71 17.7467 193.457 18.5333 193.51 19.6L194.47 37.76C194.524 38.5867 194.617 39.1867 194.75 39.56C194.91 39.9333 195.177 40.1867 195.55 40.32C195.95 40.4533 196.564 40.52 197.39 40.52ZM217.087 38.36C217.141 38.36 217.194 38.4133 217.247 38.52C217.327 38.6267 217.341 38.7067 217.287 38.76C216.301 39.72 215.301 40.4133 214.287 40.84C213.274 41.2667 212.167 41.48 210.967 41.48C209.287 41.48 207.834 41.1333 206.607 40.44C205.381 39.72 204.447 38.7733 203.807 37.6C203.167 36.4 202.847 35.1067 202.847 33.72C202.847 32.1733 203.234 30.7467 204.007 29.44C204.781 28.1333 205.847 27.1067 207.207 26.36C208.594 25.5867 210.154 25.2 211.887 25.2C213.541 25.2 214.821 25.5733 215.727 26.32C216.634 27.0667 217.087 28.2267 217.087 29.8C217.087 30.6267 216.941 31.04 216.647 31.04L206.927 31.08C206.901 31.2667 206.887 31.5733 206.887 32C206.887 34.3467 207.421 36.1867 208.487 37.52C209.581 38.8533 211.141 39.52 213.167 39.52C213.887 39.52 214.501 39.44 215.007 39.28C215.514 39.12 216.181 38.8267 217.007 38.4L217.087 38.36ZM210.367 26C209.487 26 208.754 26.3867 208.167 27.16C207.581 27.9067 207.194 28.9467 207.007 30.28L212.807 30.2C212.781 28.84 212.581 27.8 212.207 27.08C211.834 26.36 211.221 26 210.367 26ZM241.846 40.52C241.926 40.52 241.966 40.6 241.966 40.76C241.966 40.92 241.926 41 241.846 41C241.153 41 240.606 40.9867 240.206 40.96L237.806 40.92L235.486 40.96C235.059 40.9867 234.499 41 233.806 41C233.726 41 233.686 40.92 233.686 40.76C233.686 40.6 233.726 40.52 233.806 40.52C234.633 40.52 235.193 40.3333 235.486 39.96C235.779 39.56 235.926 38.8267 235.926 37.76V32C235.926 30.56 235.659 29.4933 235.126 28.8C234.619 28.1067 233.806 27.76 232.686 27.76C232.046 27.76 231.379 27.8933 230.686 28.16C230.019 28.4267 229.433 28.7867 228.926 29.24V37.76C228.926 38.8267 229.073 39.56 229.366 39.96C229.686 40.3333 230.259 40.52 231.086 40.52C231.166 40.52 231.206 40.6 231.206 40.76C231.206 40.92 231.166 41 231.086 41C230.393 41 229.846 40.9867 229.446 40.96L227.046 40.92L224.686 40.96C224.286 40.9867 223.739 41 223.046 41C222.966 41 222.926 40.92 222.926 40.76C222.926 40.6 222.966 40.52 223.046 40.52C223.873 40.52 224.433 40.3333 224.726 39.96C225.019 39.56 225.166 38.8267 225.166 37.76V30.24C225.166 29.4133 225.059 28.8133 224.846 28.44C224.659 28.04 224.353 27.84 223.926 27.84C223.473 27.84 222.833 28.0267 222.006 28.4H221.926C221.846 28.4 221.779 28.3333 221.726 28.2C221.699 28.0667 221.713 27.9867 221.766 27.96L227.326 25.24C227.486 25.1867 227.579 25.16 227.606 25.16C227.899 25.16 228.179 25.4533 228.446 26.04C228.713 26.6 228.873 27.3733 228.926 28.36C230.766 26.1733 232.793 25.08 235.006 25.08C236.446 25.08 237.579 25.5467 238.406 26.48C239.259 27.3867 239.686 28.5867 239.686 30.08V37.76C239.686 38.8267 239.833 39.56 240.126 39.96C240.446 40.3333 241.019 40.52 241.846 40.52ZM265.701 38.4C265.781 38.4 265.847 38.4667 265.901 38.6C265.981 38.7333 265.981 38.8133 265.901 38.84L260.381 41.52C260.327 41.5467 260.261 41.56 260.181 41.56C259.914 41.56 259.674 41.28 259.461 40.72C259.274 40.1333 259.167 39.3467 259.141 38.36C257.381 40.44 255.474 41.48 253.421 41.48C251.954 41.48 250.794 41.0267 249.941 40.12C249.114 39.1867 248.701 37.9733 248.701 36.48V30.6C248.701 28.8667 248.287 28 247.461 28C247.167 28 246.834 28.0933 246.461 28.28H246.421C246.314 28.28 246.234 28.2133 246.181 28.08C246.127 27.92 246.141 27.8267 246.221 27.8L251.581 25.24L251.781 25.2C251.914 25.2 252.047 25.2667 252.181 25.4C252.341 25.5067 252.421 25.6133 252.421 25.72V34.56C252.421 37.44 253.527 38.88 255.741 38.88C256.327 38.88 256.914 38.76 257.501 38.52C258.114 38.2533 258.661 37.8933 259.141 37.44V30.6C259.141 28.8667 258.727 28 257.901 28C257.607 28 257.261 28.0933 256.861 28.28H256.821C256.741 28.28 256.674 28.2133 256.621 28.08C256.567 27.92 256.581 27.8267 256.661 27.8L262.021 25.24C262.074 25.2133 262.141 25.2 262.221 25.2C262.354 25.2 262.487 25.2667 262.621 25.4C262.781 25.5067 262.861 25.6133 262.861 25.72V36.36C262.861 37.2667 262.941 37.9067 263.101 38.28C263.287 38.6533 263.581 38.84 263.981 38.84C264.354 38.84 264.901 38.6933 265.621 38.4H265.701Z" fill="white"/>
<line x1="26.3201" y1="12.6159" x2="44.3201" y2="27.6159" stroke="white"/>
<line x1="13.3201" y1="9.61589" x2="31.3201" y2="24.6159" stroke="white"/>
<line x1="0.320092" y1="6.61589" x2="18.3201" y2="21.6159" stroke="white"/>
<line y1="-0.5" x2="23.4307" y2="-0.5" transform="matrix(-0.768221 0.640184 0.640184 0.768221 296 13)" stroke="white"/>
<line y1="-0.5" x2="23.4307" y2="-0.5" transform="matrix(-0.768221 0.640184 0.640184 0.768221 309 10)" stroke="white"/>
<line y1="-0.5" x2="23.4307" y2="-0.5" transform="matrix(-0.768221 0.640184 0.640184 0.768221 322 7)" stroke="white"/>
</svg>
